<?xml version="1.0" encoding="UTF-8" standalone="no"?>
<!-- Created with Inkscape (http://www.inkscape.org/) -->

<svg
   width="5.6639194mm"
   height="26.245827mm"
   viewBox="0 0 5.6639194 26.245827"
   version="1.1"
   id="svg5"
   xml:space="preserve"
   xmlns="http://www.w3.org/2000/svg"
   xmlns:svg="http://www.w3.org/2000/svg"><defs
     id="defs2" /><g
     id="layer1"
     transform="translate(-23.505759,-107.50235)"><g
       id="g552"
       transform="translate(-2.687509,-0.25963585)"><g
         id="g543"
         class="UnoptimicedTransforms"><g
           id="g776"
           style="fill:#e69d04;fill-opacity:1"><g
             id="g768"
             style="fill:#e69d04;fill-opacity:1"><path
               style="fill:#e69d04;fill-opacity:1;stroke-width:0.315874"
               d="m 29.248452,127.33343 -0.03698,6.68429 -0.982467,-6.11106 z m 0.212686,-0.002 0.136521,6.68299 0.89135,-6.12501 z"
               id="path435" /><path
               style="fill:#e69d04;fill-opacity:1;stroke-width:0.264583"
               d="m 28.275663,115.64006 0.105754,3.44554 0.898922,0.0549 -0.104936,-3.8116 z m 1.984013,-0.0148 -0.05443,3.44673 -0.898005,0.0683 0.04816,-3.81274 z"
               id="path533" /><path
               style="fill:#e69d04;fill-opacity:1;stroke-width:0.264583"
               d="m 29.589844,116.93359 c -0.183493,-0.0984 -0.272525,0.0893 -0.308594,0.4043 -0.08151,-0.62892 -0.374333,-0.7451 -1.166016,0.92383 -1.753526,3.69658 -0.166015,9.86328 -0.166015,9.86328 l 1.267578,0.60938 -0.04883,-9.11133 c 0,0 0.0834,-0.59171 0.121093,-1.22266 0.04709,0.63032 0.136719,1.2207 0.136719,1.2207 l 0.08789,9.11133 1.257812,-0.6289 c 0,0 1.495883,-6.18932 -0.3125,-9.85938 -0.408224,-0.82847 -0.685648,-1.21216 -0.86914,-1.31055 z"
               id="path535" /><path
               style="fill:#e69d04;fill-opacity:1;stroke-width:0.264583"
               d="m 28.780847,107.76499 0.05344,7.32102 -0.589375,0.15086 -1.995534,-2.29816 -0.05611,-3.7124 z m 0.856422,-0.006 0.05559,7.32101 0.591556,0.14206 1.961087,-2.32762 8.17e-4,-3.71282 z"
               id="path537" /><path
               style="fill:#e69d04;fill-opacity:1;stroke-width:0.12784"
               d="m 101.154,435.10384 -0.70128,0.2436 -0.701277,-0.23623 -1.424704,0.49459 -1.424704,0.48722 0.04429,4.1486 0.04429,4.14864 -0.568403,1.14417 c -1.93121,3.85425 -2.966914,8.45322 -3.292324,14.6383 -0.302664,5.75278 0.385837,13.3897 1.852853,20.55855 0.524992,2.56551 0.486169,2.48402 1.203251,2.81991 0.611512,0.28641 0.632946,0.3137 0.752953,1.01133 0.06796,0.39503 0.835658,5.16192 1.705214,10.59299 0.869559,5.43111 1.594851,9.8332 1.609251,9.781 0.009,-0.0329 0.28254,-1.89369 0.68652,-4.67274 0.44532,2.77274 0.74337,4.6252 0.75295,4.658 0.0152,0.052 0.67304,-4.35972 1.46162,-9.80315 0.78857,-5.44346 1.48813,-10.21916 1.55019,-10.61518 0.10961,-0.69929 0.13101,-0.73058 0.73819,-1.02606 0.712,-0.34651 0.67223,-0.26166 1.15896,-2.83465 1.36009,-7.18995 1.9385,-14.83306 1.55019,-20.5807 -0.41748,-6.1796 -1.518,-10.76897 -3.50639,-14.594 l -0.59055,-1.12944 -0.0222,-4.14863 -0.0148,-4.1486 -1.43208,-0.47244 z"
               id="path761"
               transform="matrix(0.26458333,0,0,0.26458333,2.687509,0.25963585)" /></g></g></g></g></g></svg>
